<?xml version="1.0" encoding="UTF-8" standalone="no"?>
<!-- Created with Inkscape (http://www.inkscape.org/) -->

<svg
   xmlns:dc="http://purl.org/dc/elements/1.1/"
   xmlns:cc="http://creativecommons.org/ns#"
   xmlns:rdf="http://www.w3.org/1999/02/22-rdf-syntax-ns#"
   xmlns:svg="http://www.w3.org/2000/svg"
   xmlns="http://www.w3.org/2000/svg"
   xmlns:sodipodi="http://sodipodi.sourceforge.net/DTD/sodipodi-0.dtd"
   xmlns:inkscape="http://www.inkscape.org/namespaces/inkscape"
   version="1.1"
   width="103"
   height="103"
   viewBox="0 0 103 103"
   id="svg18743"
   xml:space="preserve"
   inkscape:version="0.48.4 r9939"
   sodipodi:docname="tpeaked.svg"
   inkscape:export-filename="C:\Users\bms76_000\Documents\Meddle3.0\images\tflat.png"
   inkscape:export-xdpi="254.71698"
   inkscape:export-ydpi="254.71698"><sodipodi:namedview
   pagecolor="#ffffff"
   bordercolor="#666666"
   borderopacity="1"
   objecttolerance="10"
   gridtolerance="10"
   guidetolerance="10"
   inkscape:pageopacity="0"
   inkscape:pageshadow="2"
   inkscape:window-width="667"
   inkscape:window-height="689"
   id="namedview3417"
   showgrid="false"
   inkscape:zoom="3.4462874"
   inkscape:cx="61.451486"
   inkscape:cy="34.742342"
   inkscape:window-x="683"
   inkscape:window-y="0"
   inkscape:window-maximized="0"
   inkscape:current-layer="svg18743" /><metadata
   id="metadata19168"><rdf:RDF><cc:Work
       rdf:about=""><dc:format>image/svg+xml</dc:format><dc:type
         rdf:resource="http://purl.org/dc/dcmitype/StillImage" /><dc:title></dc:title></cc:Work></rdf:RDF></metadata><defs
   id="defs19166"><inkscape:path-effect
     effect="spiro"
     id="path-effect3421"
     is_visible="true" /></defs>
<rect
   style="fill:#00ffcc;stroke:none"
   id="rect3472"
   width="28.970638"
   height="102.06261"
   x="59.704033"
   y="-0.022548355" /><path
   style="fill:none;stroke:#d5fff6;stroke-width:1px;stroke-linecap:butt;stroke-linejoin:miter;stroke-opacity:1"
   d="M 37.151043,1.4414364 37.151043,103"
   id="path3431"
   inkscape:connector-curvature="0" /><path
   style="fill:none;stroke:#d5fff6;stroke-width:1px;stroke-linecap:butt;stroke-linejoin:miter;stroke-opacity:1"
   d="m 41.151043,1.44144 0,101.55856"
   id="path3431-7"
   inkscape:connector-curvature="0" /><path
   style="fill:none;stroke:#d5fff6;stroke-width:1px;stroke-linecap:butt;stroke-linejoin:miter;stroke-opacity:1"
   d="m 33.151043,1.44144 0,101.55856"
   id="path3431-2"
   inkscape:connector-curvature="0" /><path
   style="fill:none;stroke:#d5fff6;stroke-width:1px;stroke-linecap:butt;stroke-linejoin:miter;stroke-opacity:1"
   d="m 45.151043,1.44144 0,101.55856"
   id="path3431-23"
   inkscape:connector-curvature="0" /><g
   id="Layer_2"
   style="display:none">
	<rect
   width="400"
   height="200"
   x="-137"
   y="-47.25"
   id="rect18746"
   style="display:inline" />
</g>
<g
   id="Layer_3"
   style="display:none">
	<g
   id="g18749"
   style="display:inline">
		<path
   d="m 60,24.949 c 0.696,-23.392 18.24,-35.087 28.182,-37.427 9.942,-2.34 32.448,-5.42 43.274,14.62 27.485,50.877 -58.479,114.62 -68.421,125.731"
   id="path18751" />
		<path
   d="M 63.816,127.873 C 53.875,116.762 -32.09,53.019 -4.604,2.142 c 10.826,-20.04 33.333,-16.959 43.274,-14.62 9.941,2.339 27.485,14.035 28.182,37.427"
   id="path18753" />
	</g>
	<path
   d="M 63.426,9.284"
   id="path18755"
   style="display:inline" />
	<line
   display="inline"
   stroke-miterlimit="10"
   x1="62.5"
   y1="-110.25"
   x2="62.5"
   y2="131.75"
   id="line18757"
   style="stroke-miterlimit:10;display:inline" />
	<line
   display="inline"
   stroke-miterlimit="10"
   x1="-141"
   y1="26.25"
   x2="272"
   y2="26.25"
   id="line18759"
   style="stroke-miterlimit:10;display:inline" />
	<polygon
   points="22.655,7.339 16.852,13.935 15.146,5.317 7.081,1.835 14.75,-2.449 15.568,-11.197 22.014,-5.227 30.585,-7.151 26.899,0.823 31.379,8.381 "
   id="polygon18761"
   style="stroke-miterlimit:10;display:inline" />
	<g
   id="g18763"
   style="display:inline">
		<g
   id="g18765">
			<path
   d="m 10.9,7.212 c -8.343,0.979 -11.481,8.573 -13.653,15.759 0.639,-0.144 1.279,-0.288 1.918,-0.431 -1.087,-1.679 -1.818,-3.33 -2.339,-5.263 -0.644,0.172 -1.288,0.345 -1.932,0.518 0.91,2.109 2.599,3.739 3.509,5.848 0.148,0.344 1.079,0.028 1.297,-0.048 2.539,-0.879 4.963,-1.984 6.974,-3.797 0.405,-0.365 -1.407,-0.152 -1.746,0.154 -1.714,1.544 -3.733,2.473 -5.891,3.221 0.432,-0.016 0.865,-0.032 1.297,-0.048 -0.91,-2.109 -2.599,-3.738 -3.509,-5.848 -0.184,-0.426 -2.042,0.109 -1.932,0.518 0.521,1.933 1.251,3.584 2.339,5.263 0.25,0.387 1.794,-0.021 1.918,-0.431 C 0.8,17.172 3.311,8.767 10.06,7.975 10.544,7.917 12.164,7.064 10.9,7.212 l 0,0 z"
   id="path18767" />
		</g>
	</g>
	<g
   id="g18769"
   style="display:inline">
		<g
   id="g18771">
			<path
   d="m 29.577,13.841 c 12.966,6.081 26.797,10.437 41.167,11.243 14.875,0.835 29.186,-5.128 44.007,-5.363 0.229,-0.004 1.915,-0.573 1.194,-0.832 -3.257,-1.169 -6.638,-1.903 -9.941,-2.924 -0.468,0.277 -0.937,0.553 -1.404,0.83 2.082,0.299 4.173,0.505 6.261,0.757 4.367,0.528 4.2,2.403 1.663,5.293 -0.447,0.509 1.433,0.28 1.762,-0.095 1.295,-1.474 2.108,-2.8 2.414,-4.788 0.021,-0.141 -0.032,-0.198 -0.169,-0.243 -3.47,-1.143 -7.101,-1.269 -10.696,-1.784 -0.342,-0.049 -2.099,0.615 -1.404,0.83 3.304,1.021 6.685,1.754 9.941,2.924 0.398,-0.277 0.796,-0.555 1.194,-0.832 -13.604,0.216 -26.619,4.842 -40.193,5.386 -15.124,0.605 -30.721,-4.871 -44.222,-11.202 -0.449,-0.209 -2.223,0.496 -1.574,0.8 l 0,0 z"
   id="path18773" />
		</g>
	</g>
	<g
   id="g18775"
   style="display:inline">
		<g
   id="g18777">
			<path
   d="m 37.057,1.497 c 11.98,5.316 24.449,8.844 37.63,8.766 12.355,-0.074 24.279,-3.959 35.186,-9.537 0.761,-0.389 0.172,-0.617 -0.39,-0.531 -1.9,0.209 -3.797,0.217 -5.689,0.025 1.658,-0.566 3.375,-0.879 5.149,-0.938 3.582,-0.322 -1.813,7.943 -1.681,7.787 -0.419,0.495 1.446,0.246 1.756,-0.119 2.13,-2.517 2.891,-5.12 3.012,-8.386 0.007,-0.186 -0.475,-0.154 -0.554,-0.152 -3.547,0.101 -6.775,0.7 -10.109,1.921 -0.286,0.104 -1.029,0.628 -0.28,0.657 2.123,0.081 4.221,0.261 6.347,0.223 -0.803,0.015 -5.818,2.581 -7.145,3.125 C 93.519,7.118 86.348,8.71 79.064,9.295 65.173,10.41 51.44,6.401 38.874,0.825 38.342,0.589 36.806,1.385 37.057,1.497 l 0,0 z"
   id="path18779" />
		</g>
	</g>
	<g
   id="g18781"
   style="display:inline">
		<g
   id="g18783">
			<path
   d="m 23.008,15.675 c -1.304,2.391 -3.818,3.823 -5.732,5.675 0.381,-0.139 0.762,-0.277 1.144,-0.416 -0.286,-0.042 -0.257,-1.493 -0.947,-1.705 -0.464,-0.143 -1.54,0.058 -1.538,0.72 0.004,1.298 0.076,2.485 0.597,3.691 0.187,0.432 0.72,0.526 1.141,0.393 2.301,-0.728 4.716,-1.026 7.018,-1.754 1.166,-0.369 0.833,-1.678 -0.35,-1.304 -2.301,0.729 -4.716,1.027 -7.018,1.754 0.38,0.131 0.761,0.262 1.141,0.393 -0.47,-1.088 -0.569,-2.148 -0.573,-3.326 -0.513,0.24 -1.025,0.48 -1.538,0.72 -0.233,-0.071 0.101,1.29 0.502,1.51 1.02,0.561 1.668,0.199 2.455,-0.522 1.958,-1.793 4.239,-3.23 5.542,-5.62 0.519,-0.949 -1.443,-0.944 -1.844,-0.209 l 0,0 z"
   id="path18785" />
		</g>
	</g>
</g>
<g
   id="Layer_6"
   style="display:none">
	<g
   id="g18788"
   style="display:inline">
		<g
   id="g18790">
			<g
   id="g18792">
				<polygon
   points="105.393,121.955 106.472,120.523 107.25,126.759 102.239,122.967 104.019,122.749 17.063,-27.862 18.438,-28.656 "
   id="polygon18794" />
			</g>
		</g>
	</g>
	<g
   id="g18796"
   style="display:inline">
		<g
   id="g18798">
			<g
   id="g18800">
				<polygon
   points="-10.999,7.732 -11.217,9.51 -15.009,4.5 -8.774,5.279 -10.205,6.357 140.406,93.312 139.613,94.687 "
   id="polygon18802" />
			</g>
		</g>
	</g>
	<g
   id="g18804"
   style="display:inline">
		<g
   id="g18806">
			<g
   id="g18808">
				<g
   id="g18810">
					<g
   id="g18812">
						<rect
   width="2.2750001"
   height="2.2739999"
   x="-2.2309999"
   y="48.112999"
   id="rect18814" />
						<circle
   cx="-1.094"
   cy="49.25"
   r="1.137"
   id="circle18816" />
					</g>
				</g>
				<g
   id="g18818">
					<g
   id="g18820">
						<rect
   width="2.2750001"
   height="2.2739999"
   x="2.1040001"
   y="48.112999"
   id="rect18822" />
						<circle
   cx="3.2409999"
   cy="49.25"
   r="1.137"
   id="circle18824" />
					</g>
				</g>
				<g
   id="g18826">
					<g
   id="g18828">
						<rect
   width="2.2750001"
   height="2.2739999"
   x="6.4390001"
   y="48.112999"
   id="rect18830" />
						<circle
   cx="7.5770001"
   cy="49.25"
   r="1.137"
   id="circle18832" />
					</g>
				</g>
				<g
   id="g18834">
					<g
   id="g18836">
						<rect
   width="2.2750001"
   height="2.2739999"
   x="10.775"
   y="48.112999"
   id="rect18838" />
						<circle
   cx="11.912"
   cy="49.25"
   r="1.137"
   id="circle18840" />
					</g>
				</g>
				<g
   id="g18842">
					<g
   id="g18844">
						<rect
   width="2.2750001"
   height="2.2739999"
   x="15.11"
   y="48.112999"
   id="rect18846" />
						<circle
   cx="16.247999"
   cy="49.25"
   r="1.137"
   id="circle18848" />
					</g>
				</g>
				<g
   id="g18850">
					<g
   id="g18852">
						<rect
   width="2.2750001"
   height="2.2739999"
   x="19.445999"
   y="48.112999"
   id="rect18854" />
						<circle
   cx="20.583"
   cy="49.25"
   r="1.137"
   id="circle18856" />
					</g>
				</g>
				<g
   id="g18858">
					<g
   id="g18860">
						<rect
   width="2.2750001"
   height="2.2739999"
   x="23.781"
   y="48.112999"
   id="rect18862" />
						<circle
   cx="24.919001"
   cy="49.25"
   r="1.137"
   id="circle18864" />
					</g>
				</g>
				<g
   id="g18866">
					<g
   id="g18868">
						<rect
   width="2.2750001"
   height="2.2739999"
   x="28.115999"
   y="48.112999"
   id="rect18870" />
						<circle
   cx="29.254"
   cy="49.25"
   r="1.138"
   id="circle18872" />
					</g>
				</g>
				<g
   id="g18874">
					<g
   id="g18876">
						<rect
   width="2.2750001"
   height="2.2739999"
   x="32.452"
   y="48.112999"
   id="rect18878" />
						<circle
   cx="33.589001"
   cy="49.25"
   r="1.138"
   id="circle18880" />
					</g>
				</g>
				<g
   id="g18882">
					<g
   id="g18884">
						<rect
   width="2.2750001"
   height="2.2739999"
   x="36.786999"
   y="48.112999"
   id="rect18886" />
						<circle
   cx="37.924999"
   cy="49.25"
   r="1.138"
   id="circle18888" />
					</g>
				</g>
				<g
   id="g18890">
					<g
   id="g18892">
						<rect
   width="2.2750001"
   height="2.2739999"
   x="41.123001"
   y="48.112999"
   id="rect18894" />
						<circle
   cx="42.259998"
   cy="49.25"
   r="1.137"
   id="circle18896" />
					</g>
				</g>
				<g
   id="g18898">
					<g
   id="g18900">
						<rect
   width="2.2750001"
   height="2.2739999"
   x="45.458"
   y="48.112999"
   id="rect18902" />
						<circle
   cx="46.595001"
   cy="49.25"
   r="1.137"
   id="circle18904" />
					</g>
				</g>
				<g
   id="g18906">
					<g
   id="g18908">
						<rect
   width="2.2750001"
   height="2.2739999"
   x="49.792999"
   y="48.112999"
   id="rect18910" />
						<circle
   cx="50.931"
   cy="49.25"
   r="1.137"
   id="circle18912" />
					</g>
				</g>
				<g
   id="g18914">
					<g
   id="g18916">
						<rect
   width="2.2750001"
   height="2.2739999"
   x="54.129002"
   y="48.112999"
   id="rect18918" />
						<circle
   cx="55.265999"
   cy="49.25"
   r="1.137"
   id="circle18920" />
					</g>
				</g>
				<g
   id="g18922">
					<g
   id="g18924">
						<rect
   width="2.2750001"
   height="2.2739999"
   x="58.464001"
   y="48.112999"
   id="rect18926" />
						<circle
   cx="59.602001"
   cy="49.25"
   r="1.137"
   id="circle18928" />
					</g>
				</g>
				<g
   id="g18930">
					<g
   id="g18932">
						<rect
   width="2.2750001"
   height="2.2739999"
   x="62.799999"
   y="48.112999"
   id="rect18934" />
						<circle
   cx="63.938"
   cy="49.249001"
   r="1.138"
   id="circle18936" />
					</g>
				</g>
				<g
   id="g18938">
					<g
   id="g18940">
						<rect
   width="2.2739999"
   height="2.2739999"
   x="67.136002"
   y="48.112"
   id="rect18942" />
						<circle
   cx="68.273003"
   cy="49.249001"
   r="1.137"
   id="circle18944" />
					</g>
				</g>
				<g
   id="g18946">
					<g
   id="g18948">
						<rect
   width="2.2750001"
   height="2.2739999"
   x="71.471001"
   y="48.112"
   id="rect18950" />
						<circle
   cx="72.608002"
   cy="49.249001"
   r="1.138"
   id="circle18952" />
					</g>
				</g>
				<g
   id="g18954">
					<g
   id="g18956">
						<rect
   width="2.2739999"
   height="2.2739999"
   x="75.806999"
   y="48.112"
   id="rect18958" />
						<circle
   cx="76.944"
   cy="49.249001"
   r="1.137"
   id="circle18960" />
					</g>
				</g>
				<g
   id="g18962">
					<g
   id="g18964">
						<rect
   width="2.2750001"
   height="2.2739999"
   x="80.141998"
   y="48.112"
   id="rect18966" />
						<circle
   cx="81.278999"
   cy="49.249001"
   r="1.138"
   id="circle18968" />
					</g>
				</g>
				<g
   id="g18970">
					<g
   id="g18972">
						<rect
   width="2.2739999"
   height="2.2739999"
   x="84.477997"
   y="48.112"
   id="rect18974" />
						<circle
   cx="85.614998"
   cy="49.249001"
   r="1.137"
   id="circle18976" />
					</g>
				</g>
				<g
   id="g18978">
					<g
   id="g18980">
						<rect
   width="2.2750001"
   height="2.2739999"
   x="88.813004"
   y="48.112"
   id="rect18982" />
						<circle
   cx="89.949997"
   cy="49.249001"
   r="1.138"
   id="circle18984" />
					</g>
				</g>
				<g
   id="g18986">
					<g
   id="g18988">
						<rect
   width="2.2739999"
   height="2.2739999"
   x="93.148003"
   y="48.112"
   id="rect18990" />
						<circle
   cx="94.286003"
   cy="49.249001"
   r="1.137"
   id="circle18992" />
					</g>
				</g>
				<g
   id="g18994">
					<g
   id="g18996">
						<rect
   width="2.2750001"
   height="2.2739999"
   x="97.483002"
   y="48.112"
   id="rect18998" />
						<circle
   cx="98.621002"
   cy="49.249001"
   r="1.138"
   id="circle19000" />
					</g>
				</g>
				<g
   id="g19002">
					<g
   id="g19004">
						<rect
   width="2.2739999"
   height="2.2739999"
   x="101.819"
   y="48.112"
   id="rect19006" />
						<circle
   cx="102.957"
   cy="49.249001"
   r="1.137"
   id="circle19008" />
					</g>
				</g>
			</g>
		</g>
	</g>
	<g
   id="g19010"
   style="display:inline">
		<g
   id="g19012">
			<g
   id="g19014">
				<polygon
   points="135.205,6.356 133.773,5.278 140.009,4.499 136.217,9.509 135.999,7.731 -14.612,94.688 -15.406,93.313 "
   id="polygon19016" />
			</g>
		</g>
	</g>
	<g
   id="g19018"
   style="display:inline">
		<g
   id="g19020">
			<g
   id="g19022">
				<polygon
   points="20.983,122.749 22.761,122.967 17.751,126.759 18.53,120.523 19.608,121.955 106.563,-28.657 107.938,-27.863 "
   id="polygon19024" />
			</g>
		</g>
	</g>
	<g
   id="g19026"
   style="display:inline">
		<g
   id="g19028">
			<g
   id="g19030">
				<polygon
   points="63,133.66 64.797,132.96 62.428,138.749 60.167,132.96 62,133.66 62,-40.25 63,-40.25 "
   id="polygon19032" />
			</g>
		</g>
	</g>
</g>


<g
   id="short"
   style="display:none">
	<rect
   width="44"
   height="103"
   x="16"
   y="0.75"
   id="rect19079"
   style="display:inline" />
	<g
   id="g19081"
   style="display:inline">
		
			<rect
   width="103"
   height="103"
   x="1.5"
   y="1.25"
   id="rect19083"
   style="stroke-miterlimit:10" />
		
			<line
   stroke-miterlimit="10"
   x1="2"
   y1="89.25"
   x2="105"
   y2="89.25"
   id="line19085"
   style="stroke-miterlimit:10" />
		
			<line
   stroke-miterlimit="10"
   x1="2"
   y1="74.25"
   x2="105"
   y2="74.25"
   id="line19087"
   style="stroke-miterlimit:10" />
		
			<line
   stroke-miterlimit="10"
   x1="2"
   y1="60.25"
   x2="105"
   y2="60.25"
   id="line19089"
   style="stroke-miterlimit:10" />
		
			<line
   stroke-miterlimit="10"
   x1="2"
   y1="45.25"
   x2="105"
   y2="45.25"
   id="line19091"
   style="stroke-miterlimit:10" />
		
			<line
   stroke-miterlimit="10"
   x1="2"
   y1="30.25"
   x2="105"
   y2="30.25"
   id="line19093"
   style="stroke-miterlimit:10" />
		
			<line
   stroke-miterlimit="10"
   x1="2"
   y1="15.25"
   x2="105"
   y2="15.25"
   id="line19095"
   style="stroke-miterlimit:10" />
		
			<line
   stroke-miterlimit="10"
   x1="90.5"
   y1="0.75"
   x2="90.5"
   y2="103.75"
   id="line19097"
   style="stroke-miterlimit:10" />
		
			<line
   stroke-miterlimit="10"
   x1="75.5"
   y1="0.75"
   x2="75.5"
   y2="103.75"
   id="line19099"
   style="stroke-miterlimit:10" />
		
			<line
   stroke-miterlimit="10"
   x1="60.5"
   y1="0.75"
   x2="60.5"
   y2="103.75"
   id="line19101"
   style="stroke-miterlimit:10" />
		
			<line
   stroke-miterlimit="10"
   x1="46.5"
   y1="0.75"
   x2="46.5"
   y2="103.75"
   id="line19103"
   style="stroke-miterlimit:10" />
		
			<line
   stroke-miterlimit="10"
   x1="31.5"
   y1="0.75"
   x2="31.5"
   y2="103.75"
   id="line19105"
   style="stroke-miterlimit:10" />
		
			<line
   stroke-miterlimit="10"
   x1="16.5"
   y1="0.75"
   x2="16.5"
   y2="103.75"
   id="line19107"
   style="stroke-miterlimit:10" />
	</g>
	
		<path
   d="m 0,77.75 c 1,0 6.5,0.5 14.5,0.5 8,0 7.5,-43.961 19.479,-42.506 13.994,1.699 14.633,41.654 27.027,41.563 C 84.581,77.134 89,-12.75 89,-12.75 l 16.5,-5.984"
   id="path19109"
   style="stroke-miterlimit:10;display:inline" />
	
		<line
   display="inline"
   stroke-miterlimit="10"
   x1="-1"
   y1="88.75"
   x2="102"
   y2="88.75"
   id="line19111"
   style="stroke-miterlimit:10;display:inline" />
	
		<line
   display="inline"
   stroke-miterlimit="10"
   x1="16"
   y1="1.75"
   x2="16"
   y2="104.75"
   id="line19113"
   style="stroke-miterlimit:10;display:inline" />
	
		<line
   display="inline"
   stroke-miterlimit="10"
   x1="89"
   y1="-0.25"
   x2="89"
   y2="102.75"
   id="line19115"
   style="stroke-miterlimit:10;display:inline" />
	
		<line
   display="inline"
   stroke-miterlimit="10"
   x1="103"
   y1="15.75"
   x2="1"
   y2="15.75"
   id="line19117"
   style="stroke-miterlimit:10;display:inline" />
</g>
<g
   id="Layer_12"
   style="display:none">
</g>
<g
   id="long"
   style="display:none">
	<rect
   width="92"
   height="103"
   x="5"
   y="0.75"
   id="rect19121"
   style="display:inline" />
	<g
   id="g19123"
   style="display:inline">
		
			<rect
   width="103"
   height="103"
   x="1.5"
   y="1.25"
   id="rect19125"
   style="stroke-miterlimit:10" />
		
			<line
   stroke-miterlimit="10"
   x1="2"
   y1="89.25"
   x2="105"
   y2="89.25"
   id="line19127"
   style="stroke-miterlimit:10" />
		
			<line
   stroke-miterlimit="10"
   x1="2"
   y1="74.25"
   x2="105"
   y2="74.25"
   id="line19129"
   style="stroke-miterlimit:10" />
		
			<line
   stroke-miterlimit="10"
   x1="2"
   y1="60.25"
   x2="105"
   y2="60.25"
   id="line19131"
   style="stroke-miterlimit:10" />
		
			<line
   stroke-miterlimit="10"
   x1="2"
   y1="45.25"
   x2="105"
   y2="45.25"
   id="line19133"
   style="stroke-miterlimit:10" />
		
			<line
   stroke-miterlimit="10"
   x1="2"
   y1="30.25"
   x2="105"
   y2="30.25"
   id="line19135"
   style="stroke-miterlimit:10" />
		
			<line
   stroke-miterlimit="10"
   x1="2"
   y1="15.25"
   x2="105"
   y2="15.25"
   id="line19137"
   style="stroke-miterlimit:10" />
		
			<line
   stroke-miterlimit="10"
   x1="90.5"
   y1="0.75"
   x2="90.5"
   y2="103.75"
   id="line19139"
   style="stroke-miterlimit:10" />
		
			<line
   stroke-miterlimit="10"
   x1="75.5"
   y1="0.75"
   x2="75.5"
   y2="103.75"
   id="line19141"
   style="stroke-miterlimit:10" />
		
			<line
   stroke-miterlimit="10"
   x1="60.5"
   y1="0.75"
   x2="60.5"
   y2="103.75"
   id="line19143"
   style="stroke-miterlimit:10" />
		
			<line
   stroke-miterlimit="10"
   x1="46.5"
   y1="0.75"
   x2="46.5"
   y2="103.75"
   id="line19145"
   style="stroke-miterlimit:10" />
		
			<line
   stroke-miterlimit="10"
   x1="31.5"
   y1="0.75"
   x2="31.5"
   y2="103.75"
   id="line19147"
   style="stroke-miterlimit:10" />
		
			<line
   stroke-miterlimit="10"
   x1="16.5"
   y1="0.75"
   x2="16.5"
   y2="103.75"
   id="line19149"
   style="stroke-miterlimit:10" />
	</g>
	
		<path
   d="m 0,77.75 c 1,0 -4.222,0.206 3.778,0.206 8,0 10.493,-43.911 22.472,-42.456 C 40.244,37.199 37,77 48.5,77.5 60,78 97,77.5 97,77.5 l 9.75,19.75 -1.25,-115.984"
   id="path19151"
   style="stroke-miterlimit:10;display:inline" />
	
		<line
   display="inline"
   stroke-miterlimit="10"
   x1="-1"
   y1="88.75"
   x2="102"
   y2="88.75"
   id="line19153"
   style="stroke-miterlimit:10;display:inline" />
	
		<line
   display="inline"
   stroke-miterlimit="10"
   x1="16"
   y1="1.75"
   x2="16"
   y2="104.75"
   id="line19155"
   style="stroke-miterlimit:10;display:inline" />
	
		<line
   display="inline"
   stroke-miterlimit="10"
   x1="90"
   y1="-0.25"
   x2="90"
   y2="102.75"
   id="line19157"
   style="stroke-miterlimit:10;display:inline" />
	
		<line
   display="inline"
   stroke-miterlimit="10"
   x1="103"
   y1="15.75"
   x2="1"
   y2="15.75"
   id="line19159"
   style="stroke-miterlimit:10;display:inline" />
</g>

<path
   style="fill:none;stroke:#d5fff6;stroke-width:1px;stroke-linecap:butt;stroke-linejoin:miter;stroke-opacity:1"
   d="m 102.05061,3.7817626 -101.55855982,0"
   id="path3431-25"
   inkscape:connector-curvature="0" /><path
   style="fill:none;stroke:#d5fff6;stroke-width:1px;stroke-linecap:butt;stroke-linejoin:miter;stroke-opacity:1"
   d="m 102.05061,7.781763 -101.55855982,0"
   id="path3431-25-4"
   inkscape:connector-curvature="0" /><path
   style="fill:none;stroke:#d5fff6;stroke-width:1px;stroke-linecap:butt;stroke-linejoin:miter;stroke-opacity:1"
   d="m 102.05061,11.781763 -101.55855982,0"
   id="path3431-25-1"
   inkscape:connector-curvature="0" /><path
   style="fill:none;stroke:#d5fff6;stroke-width:1px;stroke-linecap:butt;stroke-linejoin:miter;stroke-opacity:1"
   d="m 102.05061,19.781763 -101.55855982,0"
   id="path3431-25-6"
   inkscape:connector-curvature="0" /><path
   style="fill:none;stroke:#d5fff6;stroke-width:1px;stroke-linecap:butt;stroke-linejoin:miter;stroke-opacity:1"
   d="m 102.05061,23.781763 -101.55855982,0"
   id="path3431-25-3"
   inkscape:connector-curvature="0" /><path
   style="fill:none;stroke:#d5fff6;stroke-width:1px;stroke-linecap:butt;stroke-linejoin:miter;stroke-opacity:1"
   d="m 102.05061,27.781763 -101.55855982,0"
   id="path3431-25-4-9"
   inkscape:connector-curvature="0" /><path
   style="fill:none;stroke:#d5fff6;stroke-width:1px;stroke-linecap:butt;stroke-linejoin:miter;stroke-opacity:1"
   d="m 102.05061,31.781763 -101.55855982,0"
   id="path3431-25-1-6"
   inkscape:connector-curvature="0" /><path
   style="fill:none;stroke:#d5fff6;stroke-width:1px;stroke-linecap:butt;stroke-linejoin:miter;stroke-opacity:1"
   d="m 102.05061,39.781763 -101.55855982,0"
   id="path3431-25-6-1"
   inkscape:connector-curvature="0" /><path
   style="fill:none;stroke:#d5fff6;stroke-width:1px;stroke-linecap:butt;stroke-linejoin:miter;stroke-opacity:1"
   d="m 102.05061,43.781763 -101.55855982,0"
   id="path3431-25-62"
   inkscape:connector-curvature="0" /><path
   style="fill:none;stroke:#d5fff6;stroke-width:1px;stroke-linecap:butt;stroke-linejoin:miter;stroke-opacity:1"
   d="m 102.05061,47.781763 -101.55855982,0"
   id="path3431-25-4-4"
   inkscape:connector-curvature="0" /><path
   style="fill:none;stroke:#d5fff6;stroke-width:1px;stroke-linecap:butt;stroke-linejoin:miter;stroke-opacity:1"
   d="m 102.05061,51.781763 -101.55855982,0"
   id="path3431-25-1-4"
   inkscape:connector-curvature="0" /><path
   style="fill:none;stroke:#d5fff6;stroke-width:1px;stroke-linecap:butt;stroke-linejoin:miter;stroke-opacity:1"
   d="m 102.05061,59.781763 -101.55855982,0"
   id="path3431-25-6-13"
   inkscape:connector-curvature="0" /><path
   style="fill:none;stroke:#d5fff6;stroke-width:1px;stroke-linecap:butt;stroke-linejoin:miter;stroke-opacity:1"
   d="m 102.05061,63.781763 -101.55855982,0"
   id="path3431-25-69"
   inkscape:connector-curvature="0" /><path
   style="fill:none;stroke:#d5fff6;stroke-width:1px;stroke-linecap:butt;stroke-linejoin:miter;stroke-opacity:1"
   d="m 102.05061,67.781763 -101.55855982,0"
   id="path3431-25-4-48"
   inkscape:connector-curvature="0" /><path
   style="fill:none;stroke:#d5fff6;stroke-width:1px;stroke-linecap:butt;stroke-linejoin:miter;stroke-opacity:1"
   d="m 102.05061,71.781763 -101.55855982,0"
   id="path3431-25-1-9"
   inkscape:connector-curvature="0" /><path
   style="fill:none;stroke:#d5fff6;stroke-width:1px;stroke-linecap:butt;stroke-linejoin:miter;stroke-opacity:1"
   d="m 102.05061,79.781763 -101.55855982,0"
   id="path3431-25-6-2"
   inkscape:connector-curvature="0" /><path
   style="fill:none;stroke:#d5fff6;stroke-width:1px;stroke-linecap:butt;stroke-linejoin:miter;stroke-opacity:1"
   d="m 102.05061,83.781763 -101.55855982,0"
   id="path3431-25-36"
   inkscape:connector-curvature="0" /><path
   style="fill:none;stroke:#d5fff6;stroke-width:1px;stroke-linecap:butt;stroke-linejoin:miter;stroke-opacity:1"
   d="m 102.05061,87.781763 -101.55855982,0"
   id="path3431-25-4-3"
   inkscape:connector-curvature="0" /><path
   style="fill:none;stroke:#d5fff6;stroke-width:1px;stroke-linecap:butt;stroke-linejoin:miter;stroke-opacity:1"
   d="m 102.05061,91.781763 -101.55855982,0"
   id="path3431-25-1-3"
   inkscape:connector-curvature="0" /><path
   style="fill:none;stroke:#d5fff6;stroke-width:1px;stroke-linecap:butt;stroke-linejoin:miter;stroke-opacity:1"
   d="m 53.151043,1.44144 0,101.55856"
   id="path3431-9"
   inkscape:connector-curvature="0" /><path
   style="fill:none;stroke:#d5fff6;stroke-width:1px;stroke-linecap:butt;stroke-linejoin:miter;stroke-opacity:1"
   d="M 57.151043,1.4414436 57.151043,103"
   id="path3431-7-7"
   inkscape:connector-curvature="0" /><path
   style="fill:none;stroke:#d5fff6;stroke-width:1px;stroke-linecap:butt;stroke-linejoin:miter;stroke-opacity:1"
   d="M 61.151043,1.4414436 61.151043,103"
   id="path3431-23-4"
   inkscape:connector-curvature="0" /><path
   style="fill:none;stroke:#d5fff6;stroke-width:1px;stroke-linecap:butt;stroke-linejoin:miter;stroke-opacity:1"
   d="m 21.151043,1.44144 0,101.55856"
   id="path3431-3"
   inkscape:connector-curvature="0" /><path
   style="fill:none;stroke:#d5fff6;stroke-width:1px;stroke-linecap:butt;stroke-linejoin:miter;stroke-opacity:1"
   d="M 25.151043,1.4414436 25.151043,103"
   id="path3431-7-2"
   inkscape:connector-curvature="0" /><path
   style="fill:none;stroke:#d5fff6;stroke-width:1px;stroke-linecap:butt;stroke-linejoin:miter;stroke-opacity:1"
   d="M 17.151043,1.4414436 17.151043,103"
   id="path3431-2-1"
   inkscape:connector-curvature="0" /><path
   style="fill:none;stroke:#d5fff6;stroke-width:1px;stroke-linecap:butt;stroke-linejoin:miter;stroke-opacity:1"
   d="M 73.151043,1.4414436 73.151043,103"
   id="path3431-7-4"
   inkscape:connector-curvature="0" /><path
   style="fill:none;stroke:#d5fff6;stroke-width:1px;stroke-linecap:butt;stroke-linejoin:miter;stroke-opacity:1"
   d="M 65.151043,1.4414436 65.151043,103"
   id="path3431-2-4"
   inkscape:connector-curvature="0" /><path
   style="fill:none;stroke:#d5fff6;stroke-width:1px;stroke-linecap:butt;stroke-linejoin:miter;stroke-opacity:1"
   d="M 77.151043,1.4414436 77.151043,103"
   id="path3431-23-7"
   inkscape:connector-curvature="0" /><path
   style="fill:none;stroke:#d5fff6;stroke-width:1px;stroke-linecap:butt;stroke-linejoin:miter;stroke-opacity:1"
   d="m 85.151043,1.44144 0,101.55856"
   id="path3431-76"
   inkscape:connector-curvature="0" /><path
   style="fill:none;stroke:#d5fff6;stroke-width:1px;stroke-linecap:butt;stroke-linejoin:miter;stroke-opacity:1"
   d="M 81.151043,1.4414436 81.151043,103"
   id="path3431-2-9"
   inkscape:connector-curvature="0" /><path
   style="fill:none;stroke:#d5fff6;stroke-width:1px;stroke-linecap:butt;stroke-linejoin:miter;stroke-opacity:1"
   d="M 93.151043,1.4414436 93.151043,103"
   id="path3431-23-23"
   inkscape:connector-curvature="0" /><path
   style="fill:none;stroke:#d5fff6;stroke-width:1px;stroke-linecap:butt;stroke-linejoin:miter;stroke-opacity:1"
   d="m 5.151043,1.44144 0,101.55856"
   id="path3431-99"
   inkscape:connector-curvature="0" /><g
   id="g3820"
   style="stroke:#80ffe6"><path
     inkscape:connector-curvature="0"
     id="path3431-2-3"
     d="M 49.151043,1.4414436 49.151043,103"
     style="fill:none;stroke:#80ffe6;stroke-width:1px;stroke-linecap:butt;stroke-linejoin:miter;stroke-opacity:1" /><path
     inkscape:connector-curvature="0"
     id="path3431-23-2"
     d="M 29.151043,1.4414436 29.151043,103"
     style="fill:none;stroke:#80ffe6;stroke-width:1px;stroke-linecap:butt;stroke-linejoin:miter;stroke-opacity:1" /><path
     inkscape:connector-curvature="0"
     id="path3431-29"
     d="m 69.151043,1.44144 0,101.55856"
     style="fill:none;stroke:#80ffe6;stroke-width:1px;stroke-linecap:butt;stroke-linejoin:miter;stroke-opacity:1" /><path
     inkscape:connector-curvature="0"
     id="path3431-7-9"
     d="M 89.151043,1.4414436 89.151043,103"
     style="fill:none;stroke:#80ffe6;stroke-width:1px;stroke-linecap:butt;stroke-linejoin:miter;stroke-opacity:1" /><path
     inkscape:connector-curvature="0"
     id="path3431-7-43"
     d="M 9.151043,1.4414436 9.151043,103"
     style="fill:none;stroke:#80ffe6;stroke-width:1px;stroke-linecap:butt;stroke-linejoin:miter;stroke-opacity:1" /></g><path
   style="fill:none;stroke:#ccffaa;stroke-width:1px;stroke-linecap:butt;stroke-linejoin:miter;stroke-opacity:1"
   d="M 1.151043,1.4414436 1.151043,103"
   id="path3431-2-6"
   inkscape:connector-curvature="0" /><path
   style="fill:none;stroke:#d5fff6;stroke-width:1px;stroke-linecap:butt;stroke-linejoin:miter;stroke-opacity:1"
   d="M 13.151043,1.4414436 13.151043,103"
   id="path3431-23-8"
   inkscape:connector-curvature="0" /><path
   style="fill:none;stroke:#d5fff6;stroke-width:1px;stroke-linecap:butt;stroke-linejoin:miter;stroke-opacity:1"
   d="m 97.151043,1.44144 0,101.55856"
   id="path3431-76-9"
   inkscape:connector-curvature="0" /><path
   style="fill:none;stroke:#d5fff6;stroke-width:1px;stroke-linecap:butt;stroke-linejoin:miter;stroke-opacity:1"
   d="M 101.15104,1.4414436 101.15104,103"
   id="path3431-7-9-1"
   inkscape:connector-curvature="0" /><path
   style="fill:none;stroke:#d5fff6;stroke-width:1px;stroke-linecap:butt;stroke-linejoin:miter;stroke-opacity:1"
   d="m 102.05061,99.781763 -101.55855982,0"
   id="path3431-25-2-1-1"
   inkscape:connector-curvature="0" /><g
   id="g3813"
   style="stroke:#80ffe6"><path
     inkscape:connector-curvature="0"
     id="path3431-25-2"
     d="m 102.05061,15.781763 -101.55855982,0"
     style="fill:none;stroke:#80ffe6;stroke-width:1px;stroke-linecap:butt;stroke-linejoin:miter;stroke-opacity:1" /><path
     inkscape:connector-curvature="0"
     id="path3431-25-2-2"
     d="m 102.05061,35.781763 -101.55855982,0"
     style="fill:none;stroke:#80ffe6;stroke-width:1px;stroke-linecap:butt;stroke-linejoin:miter;stroke-opacity:1" /><path
     inkscape:connector-curvature="0"
     id="path3431-25-2-9"
     d="m 102.05061,55.781763 -101.55855982,0"
     style="fill:none;stroke:#80ffe6;stroke-width:1px;stroke-linecap:butt;stroke-linejoin:miter;stroke-opacity:1" /><path
     inkscape:connector-curvature="0"
     id="path3431-25-2-6"
     d="m 102.05061,75.781763 -101.55855982,0"
     style="fill:none;stroke:#80ffe6;stroke-width:1px;stroke-linecap:butt;stroke-linejoin:miter;stroke-opacity:1" /><path
     inkscape:connector-curvature="0"
     id="path3431-25-2-1"
     d="m 102.05061,95.781763 -101.55855982,0"
     style="fill:none;stroke:#80ffe6;stroke-width:1px;stroke-linecap:butt;stroke-linejoin:miter;stroke-opacity:1" /></g><path
   style="fill:none;stroke:#000000;stroke-width:1.31917071px;stroke-linecap:butt;stroke-linejoin:miter;stroke-opacity:1"
   d="m 0.62326772,64.287391 c 0,0 2.72755218,-0.450487 11.45700928,-0.450487 5.241407,0 3.845268,-6.993469 8.146058,-6.660201 4.30079,0.333268 1.871968,7.729765 8.248178,6.957197 3.73323,-0.452334 5.16992,0.876294 5.16992,0.876294 l 2.62979,4.830481 3.316498,-57.00622 0.653265,64.779956 c 4.915535,-5.085834 2.905742,-3.352689 15.178544,-8.584232 12.272803,-5.231544 11.553754,-35.973731 19.385849,-36.070818 7.832095,-0.09709 9.36886,31.062091 16.732241,30.978714 7.363381,-0.08338 11.93241,-0.296264 11.93241,-0.296264"
   id="path3427"
   inkscape:connector-curvature="0"
   sodipodi:nodetypes="cszscccczzzc" /><g
   transform="translate(0.43644559,-0.43644069)"
   id="Layer_8"
   style="fill:none;stroke:#000000;stroke-width:3;stroke-miterlimit:4;stroke-dasharray:none">
	
		<rect
   width="103"
   height="103"
   x="0"
   y="0.75"
   id="rect19162"
   style="fill:none;stroke:#000000;stroke-width:3;stroke-miterlimit:4;stroke-dasharray:none" />
</g></svg>